Coordinates
version=1
nRows=26
nColumns=18
inDegrees=yes

Units are S.I. units (second, meters, Newtons, ...)
If the header above contains a line with 'inDegrees', this indicates whether rotational values are in degrees (yes) or radians (no).

endheader
time	ground_thorax_rot_x	ground_thorax_rot_y	ground_thorax_rot_z	ground_thorax_tx	ground_thorax_ty	ground_thorax_tz	clav_prot	clav_elev	scapula_abduction	scapula_elevation	scapula_upward_rot	scapula_winging	plane_elv	shoulder_elv	axial_rot	elbow_flexion	pro_sup
      2.00000000	    -11.77926366	    -16.13816984	    -39.95934116	      0.05834799	     -0.03295593	      0.03985804	    -24.78411737	     -6.48317201	    -24.17576474	     -4.20355525	      6.49712272	     32.22215943	    -45.77576284	     31.52008375	     21.93443660	      0.05002899	     63.92270238
      2.02000000	    -11.62091300	    -16.20952505	    -39.83012244	      0.05703307	     -0.03275221	      0.03999340	    -24.66981605	     -6.55789381	    -24.03048305	     -4.21914149	      6.37897065	     32.23660980	    -44.81207020	     31.32991349	     21.62288017	      0.05002899	     63.92270238
      2.04000000	    -11.27376388	    -16.06392593	    -39.37487374	      0.05596777	     -0.03190877	      0.03988279	    -24.83810149	     -6.85265925	    -24.06561527	     -4.50796717	      6.60299815	     32.28903181	    -45.02705947	     30.95361701	     22.78305887	      0.05002899	     63.92270238
      2.06000000	    -11.07884461	    -16.12004860	    -39.17803488	      0.05446641	     -0.03161488	      0.04000926	    -24.70833767	     -6.96276906	    -23.88074565	     -4.55040107	      6.49028931	     32.30630754	    -43.96805978	     30.72780120	     22.42360306	      0.05002899	     63.92270238
      2.08000000	    -10.75923020	    -16.00887148	    -38.69383691	      0.05308444	     -0.03072534	      0.03986626	    -24.70092416	     -7.27633222	    -23.77101296	     -4.76971756	      6.45114410	     32.38463853	    -43.67268560	     30.59303718	     22.28210408	      0.05002899	     63.92270238
      2.10000000	    -10.53847434	    -16.05469063	    -38.43283655	      0.05138235	     -0.03034704	      0.03999058	    -24.56166780	     -7.42260803	    -23.55005432	     -4.84294976	      6.35496552	     32.40430201	    -42.52452573	     30.34009002	     21.90917311	      0.05002899	     63.92270238
      2.12000000	    -10.19703454	    -16.14693121	    -38.05759054	      0.04984404	     -0.02954432	      0.04011067	    -24.51195031	     -7.74852764	    -23.34107724	     -5.08558052	      6.37462638	     32.46312044	    -41.66138175	     30.23150454	     21.67616596	      0.05002899	     63.92270238
      2.14000000	     -9.87604403	    -16.10401432	    -37.55873517	      0.04819848	     -0.02867820	      0.04014200	    -24.52589318	     -8.09570558	    -23.20968240	     -5.35406832	      6.41881864	     32.54165311	    -41.06159561	     29.94685318	     22.28973595	      0.05002899	     63.92270238
      2.16000000	     -9.59217357	    -16.17677724	    -37.16371332	      0.04627384	     -0.02804839	      0.04025674	    -24.40569888	     -8.34196426	    -22.93487058	     -5.52753471	      6.41457286	     32.57241084	    -39.89783818	     29.74336358	     21.91591163	      0.05002899	     63.92270238
      2.18000000	     -9.29721570	    -16.24332578	    -36.71746471	      0.04426155	     -0.02732856	      0.04034769	    -24.29098424	     -8.61600667	    -22.65110977	     -5.72573483	      6.42482916	     32.61011592	    -38.73752225	     29.55663827	     21.55573130	      0.05002899	     63.92270238
      2.20000000	     -8.99358946	    -16.30555389	    -36.22854672	      0.04215754	     -0.02655747	      0.04041684	    -24.17868025	     -8.90887028	    -22.35923904	     -5.94067731	      6.44522732	     32.65321785	    -37.56129255	     29.38756314	     21.20799077	      0.05002899	     63.92270238
      2.22000000	     -8.69294472	    -16.37297141	    -35.71006710	      0.03995475	     -0.02576210	      0.04049584	    -24.06527380	     -9.21083644	    -22.05846678	     -6.16446199	      6.47381757	     32.69900416	    -36.33166559	     29.22689659	     20.85098245	      0.05002899	     63.92270238
      2.24000000	     -8.40529256	    -16.45247618	    -35.16286453	      0.03766972	     -0.02493866	      0.04061982	    -23.95129680	     -9.51996946	    -21.74804848	     -6.39686639	      6.51494985	     32.74633236	    -35.05359416	     29.06343162	     20.46977522	      0.05002899	     63.92270238
      2.26000000	     -8.10547660	    -16.51933397	    -34.59036724	      0.03528853	     -0.02411356	      0.04067932	    -23.83795407	     -9.84019561	    -21.42888345	     -6.64048527	      6.56743710	     32.79726379	    -33.74689199	     28.92707915	     20.08012492	      0.05002899	     63.92270238
      2.28000000	     -7.79598419	    -16.59374322	    -33.98779333	      0.03286031	     -0.02324625	      0.04076626	    -23.73046973	    -10.16987197	    -21.11148449	     -6.89328151	      6.62729695	     32.85401062	    -32.40713037	     28.81943781	     19.67377557	      0.05002899	     63.92270238
      2.30000000	     -7.46764162	    -16.65920808	    -33.36517485	      0.03038824	     -0.02236862	      0.04083445	    -23.62844635	    -10.49868104	    -20.80600997	     -7.14395767	      6.68095355	     32.91654755	    -31.00946315	     28.75315411	     19.22653404	      0.05002899	     63.92270238
      2.32000000	     -7.16276283	    -16.72140393	    -32.70764582	      0.02786772	     -0.02150813	      0.04094640	    -23.52994243	    -10.83101658	    -20.49993516	     -7.39974177	      6.74355682	     32.98236174	    -29.62104859	     28.67626294	     18.76402463	      0.05002899	     63.92270238
      2.34000000	     -6.83102418	    -16.77549378	    -32.04521037	      0.02535807	     -0.02062898	      0.04105853	    -23.44126308	    -11.17002770	    -20.20541890	     -7.66123998	      6.80754911	     33.05607611	    -28.18700276	     28.64647467	     18.25332631	      0.05002899	     63.92270238
      2.36000000	     -6.31984807	    -16.74375173	    -31.42246041	      0.02272557	     -0.02004739	      0.04118117	    -23.46026706	    -11.31063959	    -20.33704069	     -7.68533984	      6.50803928	     33.17394456	    -25.73742680	     29.13052547	     16.60495731	      0.05002899	     63.92270238
      2.38000000	     -6.06553226	    -16.70681039	    -30.85766047	      0.02004275	     -0.01943088	      0.04127289	    -23.31906825	    -11.66519436	    -20.18761974	     -7.83647339	      6.12746426	     33.33805802	    -23.64020456	     29.69258975	     13.73771796	      0.05002899	     63.92270238
      2.40000000	     -5.76376239	    -16.71243832	    -30.15693816	      0.01763307	     -0.01859129	      0.04139063	    -23.21950972	    -12.04186506	    -19.84025049	     -8.13769113	      6.23591868	     33.41903684	    -22.38973938	     29.66604933	     13.39289430	      0.05002899	     63.92270238
      2.42000000	     -5.35780760	    -16.61034573	    -29.62971569	      0.01509161	     -0.01822721	      0.04154904	    -23.20762538	    -12.26044990	    -19.90693708	     -8.21178499	      5.91231404	     33.56245312	    -20.03796036	     30.30988176	     10.80937033	      0.05002899	     63.92270238
      2.44000000	     -5.05383201	    -16.57713070	    -28.93871006	      0.01282784	     -0.01748374	      0.04170855	    -23.10125320	    -12.63086700	    -19.55255890	     -8.50775010	      6.01893493	     33.64540553	    -18.79732202	     30.32970187	     10.50079011	      0.05002899	     63.92270238
      2.46000000	     -4.70658433	    -16.51899839	    -28.30233592	      0.01064556	     -0.01684369	      0.04188723	    -23.01673378	    -12.98088716	    -19.24512693	     -8.78610284	      6.11196306	     33.73380814	    -17.43363990	     30.44398146	     10.06790171	      0.05002899	     63.92270238
      2.48000000	     -4.14524184	    -16.13218082	    -27.84077390	      0.00834998	     -0.01688632	      0.04204618	    -23.31090674	    -13.05572201	    -19.89811730	     -8.73441576	      5.64512793	     33.94142959	    -14.65674530	     31.42973188	      6.81426130	      0.05002899	     63.92270238
      2.50000000	     -3.98397471	    -16.08206058	    -27.46045321	      0.00618734	     -0.01676688	      0.04221136	    -23.01000079	    -13.40121240	    -19.43632505	     -8.91074375	      5.41075485	     34.03709707	    -12.87974642	     32.11370470	      4.08773642	      0.05002899	     63.92270238
